<svg stroke="#ffffff" class="icon glyph" id="home" xmlns="http://www.w3.org/2000/svg" viewBox="1.344 1.3920000000000001 21.312 21.264" fill="#ffffff" style="max-height: 500px" width="21.312" height="21.264">
<g stroke-width="0" id="SVGRepo_bgCarrier"/>
<g stroke-linejoin="round" stroke-linecap="round" id="SVGRepo_tracerCarrier"/>
<g id="SVGRepo_iconCarrier">
<path d="M21.71,12.71a1,1,0,0,1-1.42,0L20,12.42V20.3A1.77,1.77,0,0,1,18.17,22H16a1,1,0,0,1-1-1V15.1a1,1,0,0,0-1-1H10a1,1,0,0,0-1,1V21a1,1,0,0,1-1,1H5.83A1.77,1.77,0,0,1,4,20.3V12.42l-.29.29a1,1,0,0,1-1.42,0,1,1,0,0,1,0-1.42l9-9a1,1,0,0,1,1.42,0l9,9A1,1,0,0,1,21.71,12.71Z"/>
</g>
</svg>