<svg stroke="#ffffff" xmlns="http://www.w3.org/2000/svg" viewBox="1.344 3.3600000000000003 21.312 17.28" fill="#ffffff" style="max-height: 500px" width="21.312" height="17.28">
<g stroke-width="0" id="SVGRepo_bgCarrier"/>
<g stroke-linejoin="round" stroke-linecap="round" id="SVGRepo_tracerCarrier"/>
<g id="SVGRepo_iconCarrier">
<path d="M6.5,12h-4a.5.5,0,0,0-.5.5V20H7V12.5A.5.5,0,0,0,6.5,12Z"/>
<path d="M14,4H10a.5.5,0,0,0-.5.5V20h5V4.5A.5.5,0,0,0,14,4Z"/>
<path d="M21.5,8h-4a.5.5,0,0,0-.5.5V20h5V8.5A.5.5,0,0,0,21.5,8Z"/>
</g>
</svg>